<?xml version="1.0" encoding="UTF-8" standalone="no"?>
<!-- Created with Inkscape (http://www.inkscape.org/) -->

<svg
   version="1.1"
   id="svg1"
   width="1024"
   height="1024"
   viewBox="0 0 1024 1024"
   xmlns="http://www.w3.org/2000/svg"
   xmlns:svg="http://www.w3.org/2000/svg">
  <defs
     id="defs1" />
  <g
     id="g1">
    <path
       style="fill:#000000"
       d="m 283.64859,515.12009 -7.17477,-0.836 -10.32523,-2.0863 -10.32524,-2.0863 -13.069,-4.3479 -13.06899,-4.348 -10.43101,-5.0386 -10.431,-5.0387 -7.56953,-4.4802 -7.56953,-4.4801 -9.93047,-7.39131 -9.93047,-7.39131 -9.33868,-8.88795 -9.33868,-8.88795 -8.09853,-10.05195 -8.09853,-10.05196 -5.88191,-9 -5.88192,-9 -6.39024,-13 -6.39024,-13 -3.95887,-11.62402 -3.95886,-11.62402 -2.03994,-9.41549 -2.03995,-9.41548 -1.54182,-11.76171 -1.541829,-11.76171 0.008,-14.69879 0.008,-14.69878 1.005669,-9 1.00568,-9 2.08899,-10.5 2.08899,-10.5 3.92426,-12 3.92426,-12 5.80074,-12 5.80075,-12 5.1046,-8.22032 5.10459,-8.22033 5.97202,-7.84517 5.97201,-7.84516 7.60597,-8.0852 7.60597,-8.08519 8.30785,-7.05325 8.30784,-7.05324 11.06899,-7.39544 11.06898,-7.39543 9.86272,-5.02923 9.86271,-5.02922 9.43924,-3.69889 9.43925,-3.69888 13.06075,-3.33962 13.06076,-3.33961 13.5,-1.71656 13.5,-1.716556 19,0.55409 19,0.554096 13.82215,2.59853 13.82214,2.59854 14.67786,4.84298 14.67785,4.84299 12.08249,6.06178 12.08246,6.06177 10.4175,6.97468 10.4176,6.97468 9,7.62687 9,7.62686 6.2891,6.72472 6.2891,6.72471 6.3336,8 6.3337,8 5.6568,8.69873 5.6568,8.69873 6.3874,13.30127 6.3874,13.30127 2.5434,7.55312 2.5434,7.55313 2.5059,9.94687 2.5059,9.94688 1.7084,10 1.7084,10 0.053,22.5 0.053,22.5 -2.3227,13 -2.3228,13 -3.3695,11.12351 -3.3695,11.12352 -4.5805,10.72413 -4.5806,10.72413 -6.1868,10.98114 -6.1868,10.98114 -7.9587,10.67122 -7.9587,10.67121 -12.0589,12.09433 -12.0588,12.09433 -10.381,7.70002 -10.3809,7.70005 -9.4187,5.5431 -9.41861,5.5432 -8.39704,3.8795 -8.39703,3.8794 -10.30337,3.598 -10.30337,3.598 -10,2.4432 -10,2.4432 -11.30122,1.4918 -11.30123,1.4919 -15.19879,-0.1298 -15.19878,-0.1297 z m 48.17476,-27.4167 10,-1.5004 10,-2.5708 10,-2.5708 12.05466,-4.95158 12.05465,-4.95154 9.44535,-5.62652 9.44534,-5.62652 7.26104,-5.36011 7.2609,-5.36011 7.8608,-6.92676 7.8607,-6.92676 7.8194,-9.30796 7.8195,-9.30797 6.8494,-10.5 6.8494,-10.5 4.8764,-10 4.8765,-10 3.1524,-9 3.1524,-9 1.9951,-8.36364 1.995,-8.36365 1.416,-10.63635 1.416,-10.63636 10e-4,-14 0.001,-14 -1.4758,-10.38304 -1.4757,-10.38305 -1.9365,-8.11695 -1.9365,-8.11696 -3.1657,-9 -3.1656,-9 -4.9809,-10 -4.981,-10 -5.3339,-8 -5.3339,-8 -3.5263,-4 -3.5263,-4 -18.2643,18.20507 -18.2642,18.20508 6.1056,6.35835 6.1056,6.35836 1.1474,3.93657 1.1475,3.93657 -0.3014,85 -0.3014,85 -2.7943,5.69009 -2.7942,5.69008 -5.3413,4.88165 -5.3413,4.88164 -6.63548,2.17827 -6.63506,2.17827 h -79.2975 -79.2975 l -5.12491,-1.52194 -5.12492,-1.52193 -5.4487,-4.97981 -5.44871,-4.97981 -1.62756,-4.06769 -1.62757,-4.06769 -10.73031,10.6017 -10.73032,10.6017 4.48015,4.05784 4.48014,4.05784 8.97766,6.00506 8.97766,6.00506 9.54219,4.7785 9.5422,4.77849 9.5,3.52311 9.5,3.5232 8.52743,2.1121 8.52743,2.1122 8.97257,1.3942 8.97257,1.3942 16,0.091 16,0.091 z m -124.53637,-109.11283 0.0364,-10.125 2.80462,-0.56092 2.80462,-0.56093 24.44538,-0.0901 24.44538,-0.0901 3.25,0.65107 3.25,0.65108 v 0.64702 0.64703 l -20.5,19.45585 -20.5,19.45595 v 3.30415 3.30414 l 1.37882,3.29998 1.37882,3.29998 2.75604,2.1679 2.75604,2.1679 78.61514,-0.022 78.61514,-0.022 4.11609,-1.8692 4.11609,-1.86919 2.88391,-3.78061 2.88395,-3.78062 0.2675,-79.82823 0.2675,-79.82823 -11.26751,0.008 -11.26753,0.008 -15.82648,16.49239 -15.82649,16.49169 h 3.51747 3.51747 l 0.46007,0.75 0.46008,0.75 0.73165,29.56778 0.73164,29.56778 -1.16789,2.18222 -1.16789,2.18222 h -4.77368 -4.77369 l -1.67498,-1.25 -1.67499,-1.25 -0.26614,-14.96333 -0.26615,-14.96333 -3.84124,9.71333 -3.84124,9.71333 h -5.72656 -5.72657 l -3.31162,-8.02097 -3.31162,-8.02098 -0.91465,-0.56528 -0.91464,-0.56528 0.29407,14.12246 0.29407,14.12246 -1.5,0.94848 -1.5,0.94848 -3.31574,0.0153 -3.31574,0.0153 -1.93426,-1.03518 -1.93426,-1.03519 0.003,-10.71481 0.003,-10.71482 0.6561,-20.25 0.6561,-20.25 h 2.86602 2.86603 l 1.02408,-2.75 1.02407,-2.75 15.60798,-15.66841 15.60798,-15.66841 -4.14496,-4.70892 -4.14496,-4.70892 -1.00627,-3.62267 -1.00627,-3.62267 -0.006,-24.75 -0.006,-24.74997 H 284.9693 233.61533 l -2.69674,2.49925 -2.69674,2.49925 -1.44928,3.46863 -1.44929,3.46863 v 37.03212 37.03212 h -9.05178 -9.05178 l 0.30612,-40.75 0.30612,-40.75 2.25366,-5.57935 2.25366,-5.57934 3.4485,-4.0288 3.4485,-4.02879 5.2935,-2.39186 5.2935,-2.39186 h 59.57609 59.57609 l 8.39344,9 8.39345,9 11.99991,12.27091 11.99991,12.27092 18.83585,-18.77092 18.8358,-18.77091 -4.8053,-4.29572 -4.8052,-4.29571 -9.5,-6.32952 -9.50004,-6.32951 -9.49753,-4.75912 -9.49752,-4.75912 -8.5114,-3.28711 -8.5114,-3.2871 -10.06271,-2.55077 -10.06271,-2.55076 -10.17178,-1.52778 -10.17179,-1.52778 -16.25658,0.006 -16.25658,0.006 -10,1.49979 -10,1.49979 -8,2.05988 -8,2.05987 -7.5,2.48965 -7.5,2.48964 -11.18572,5.35476 -11.18571,5.35476 -7.31429,4.71731 -7.31428,4.7173 -8.67761,6.90357 -8.67762,6.90358 -9.32238,9.80666 -9.32239,9.80667 -6.72014,9.41249 -6.72013,9.41249 -6.40011,12.5 -6.40011,12.5 -2.60124,7 -2.60124,7 -2.53548,9.5 -2.53548,9.5 -1.49303,11.30122 -1.49304,11.301 v 14.87643 14.87642 l 1.03232,7.82236 1.03231,7.82236 2.09785,9.5 2.09785,9.5 3.454,10 3.45399,10 4.81326,10 4.81326,10 6.24095,9.5 6.24096,9.5 4.60463,5.87154 4.60463,5.87154 18.22063,-18.87154 18.22063,-18.87154 z m 10.70304,-26.04167 -0.66667,-0.66666 v -10.72799 -10.72799 l -8.57574,-19.35535 -8.57573,-19.35534 -0.17427,-1.5 -0.17426,-1.5 6.13387,-0.2947 6.13387,-0.29471 1.53715,1.53716 1.53715,1.53715 4.71927,12.06726 4.71927,12.06726 0.72946,-0.80971 0.72946,-0.80971 4.2229,-10.5 4.22291,-10.5 1.4304,-2.25 1.4304,-2.25 h 5.91793 5.91793 l 0.65719,1.06337 0.6572,1.06336 -9.09818,19.38001 -9.09818,19.38 v 10.85663 10.85663 l -1.2,1.2 -1.2,1.2 h -5.63333 -5.63334 z m 72.03605,-0.0703 -4.79729,-0.37647 -0.88351,-2.19328 -0.8835,-2.19328 -0.58826,-2.75 -0.58826,-2.75 h -9.4015 -9.40149 l -0.65411,3.25 -0.65411,3.25 -0.49273,1.75 -0.49274,1.75 h -6.93261 -6.93261 v -1.19912 -1.19913 l 8.18151,-29.55087 8.18151,-29.55088 0.94093,-1.25 0.94094,-1.25 h 7.25511 7.25511 l 0.95952,1.25 0.95952,1.25 8.30967,29.64641 8.30966,29.6464 -0.61535,1.6036 -0.61536,1.60359 -1.28139,-0.18025 -1.28138,-0.18025 z m -10.70272,-23.4015 v -1.13848 l -3.05926,-10.58745 -3.05926,-10.58745 -0.29318,-0.29318 -0.29318,-0.29319 -2.7102,10.26911 -2.7102,10.26911 -0.50475,1.75 -0.50475,1.75 h 6.56739 6.56739 z m 93.22608,22.96455 -1.22608,-1.22608 v -30.69301 -30.69301 l 1.58179,-0.60699 1.58178,-0.60699 h 3.84679 3.84678 l 1.57143,1.57143 1.57143,1.57143 v 24.92857 24.92857 h 7.37756 7.37755 l 1.18355,1.4261 1.18356,1.42609 -0.31111,4.32391 -0.31111,4.3239 -14.02392,0.27608 -14.02392,0.27608 z m -35.81065,-39.57608 2.86787,-7.75 0.5043,-1.5 0.50431,-1.5 -3.89595,4.42188 -3.89596,4.42187 -1.34731,1.8861 -1.34731,1.88609 1.21863,2.94203 1.21863,2.94203 h 0.65247 0.65246 z m 31.26103,-81.42555 8.21824,-8.17554 -5.84777,-6.57446 -5.84777,-6.57445 -5.5545,-6 -5.55449,-6 -0.0414,17.5 -0.0413,17.5 1.98156,3.25 1.98156,3.25 h 1.24381 1.24381 z m 197.07358,236.13871 -1.75,-1.06254 v -74.25031 -74.25031 l 1.2,-1.2 1.2,-1.2 h 38.2648 38.2648 l 1.0352,1.93426 1.0352,1.93426 v 10.36574 10.36574 l -1.2,1.2 -1.2,1.2 h -23.8 -23.8 v 17.5 17.5 h 19.9285 19.9286 l 1.5714,1.57143 1.5715,1.57143 v 9.99431 9.99431 l -1.0352,1.93426 -1.0352,1.93426 h -20.4648 -20.4648 v 29.80887 29.80887 l -1.4173,1.94113 -1.4173,1.94113 -12.3327,0.26285 -12.3327,0.26286 z m 102.25,-0.96316 -2,-2 v -72.27749 -72.2775 l 1.5567,-2.2225 1.5567,-2.22251 26.1933,0.0174 26.1933,0.0174 6.631,1.40552 6.6311,1.40553 5.2517,2.66124 5.2517,2.66125 4.7349,4.42887 4.7348,4.42886 3.1074,5.83007 3.1074,5.83007 1.5102,6.40693 1.5102,6.40693 0.015,7.09004 0.015,7.09003 -2.001,7.8238 -2.001,7.82379 -2.4616,4.20045 -2.4616,4.20044 -4.6093,4.54419 -4.6093,4.5442 -2.9281,1.21285 -2.9281,1.21278 v 0.79474 0.79473 l 13.5,27.2784 13.5,27.2784 v 1.74653 1.74653 l -1.0494,0.64852 -1.0493,0.64852 -13.1933,-0.11789 -13.1934,-0.11789 -1.3012,-1.30123 -1.3012,-1.30123 -11.8187,-25.92038 -11.8186,-25.92039 -7.6375,-0.0381 -7.6374,-0.0381 v 26.13309 26.13309 l -1.8288,1.65499 -1.8287,1.65499 h -11.6713 -11.6712 z m 55.5,-82.58906 4,-2.08906 2.8555,-4.04158 2.8556,-4.04159 0.5298,-6.60007 0.5298,-6.60006 -1.3029,-4.65349 -1.3029,-4.65349 -3.1541,-3.15406 -3.154,-3.15406 -4.0444,-1.21174 -4.0445,-1.21174 h -10.134 -10.1339 v 22.08605 22.08606 l 11.25,-0.33606 11.25,-0.33605 z m 67.5,82.58906 -2,-2 v -72.92857 -72.92857 l 1.5714,-1.57143 1.5714,-1.57143 h 38.8934 38.8934 l 1.0352,1.93426 1.0352,1.93426 v 10.44329 10.4433 l -1.3306,1.10428 -1.3306,1.10428 -24.4194,0.26817 -24.4194,0.26816 -0.2736,17.25 -0.2737,17.25 h 20.9669 20.967 l 1.5567,2.22251 1.5567,2.2225 v 9.70607 9.70606 l -1.5715,1.57143 -1.5714,1.57143 h -20.9286 -20.9285 v 18 18 h 24.8775 24.8776 l 1.1562,1.39313 1.1562,1.39313 -0.2838,11.32941 -0.2837,11.32942 -2.5,1.26271 -2.5,1.26272 -36.75,0.0147 -36.75,0.0148 z m 107.25,0.47741 -2.25,-1.59082 v -73.74329 -73.7433 l 1.2,-1.2 1.2,-1.2 h 38.2285 38.2286 l 1.5714,1.57143 1.5715,1.57143 v 9.99431 9.99431 l -1.0352,1.93426 -1.0352,1.93426 h -24.4648 -24.4648 v 17.5 17.5 h 19.8088 19.8089 l 1.9411,1.41834 1.9412,1.41835 0.3474,9.60846 0.3475,9.60847 -1.6205,2.47319 -1.6205,2.47319 h -20.477 -20.4769 v 18 18 l 24.25,0.0153 24.25,0.0153 1.5,0.94821 1.5,0.94821 v 11.48651 11.48647 l -1.2989,1.3 -1.2988,1.3 -37.7012,0.28411 -37.7011,0.28412 z m -324.05,-182.67741 -1.2,-1.2 v -26.75529 -26.75528 l -4.6044,-10.79472 -4.6043,-10.79471 -15.9786,-35.81257 -15.9787,-35.81257 0.5516,-1.43743 0.5516,-1.43743 h 15.4487 15.4486 l 1.5646,4.25 1.5646,4.25 10.0509,27 10.051,27 0.5289,1.49276 0.529,1.49277 9.2945,-25.49277 9.2945,-25.49276 2.9209,-7 2.9209,-7 15.2442,-0.27616 15.2442,-0.27616 0.5808,1.51365 0.5808,1.51364 -1.03,2.76252 -1.03,2.76251 -19.5619,43.5 -19.562,43.5 -0.01,27.21482 -0.01,27.21481 -1.9343,1.03519 -1.9343,1.03518 h -11.8657 -11.8657 z m 290.6957,-0.42559 -1.3491,-1.62558 -0.3931,-46.11527 -0.3931,-46.11527 -5.8942,14.99086 -5.8943,14.99085 -6.5257,17.50531 -6.5258,17.50532 -0.9236,1.49468 -0.9237,1.49469 -8.2865,0.33206 -8.2866,0.33206 -2.6136,-1.00544 -2.6136,-1.00544 -8.2736,-22.32662 -8.2736,-22.32662 -4.3268,-11.5 -4.3268,-11.5 -0.036,46.55 -0.036,46.55 -1.2,1.2 -1.2,1.2 h -12.1 -12.1 l -1.2,-1.2 -1.2,-1.2 v -73.1 -73.1 l 1.2,-1.2 1.2,-1.2 h 16.8562 16.8562 l 1.857,4.25 1.857,4.25 11.6374,32.5 11.6374,32.5 1.8105,4.92634 1.8104,4.92635 1.7861,-5.42635 1.786,-5.42634 12.8552,-35.44243 12.8553,-35.44243 1.2476,-0.79226 1.2477,-0.79225 15.05,-0.0153 15.05,-0.0153 1.2,1.2 1.2,1.2 v 73.76482 73.76481 l -1.9343,1.03519 -1.9343,1.03515 h -10.4432 -10.4433 z m 53.6757,0.0542 -1.5714,-1.57147 v -73.30612 -73.30613 l 1.3194,-1.09501 1.3194,-1.09501 12.7171,-0.11957 12.7171,-0.11957 1.4635,1.21458 1.4635,1.21458 v 61.32529 61.3253 l 23.0378,0.30226 23.0378,0.30226 0.9469,1.5 0.9468,1.5 0.015,10.71482 0.015,10.71481 -1.9342,1.03519 -1.9343,1.03518 h -35.9943 -35.9943 z m -286.2145,-0.94084 -0.5803,-1.51227 0.4653,-2.73773 0.4654,-2.73773 6.0863,-22 6.0864,-22 11.6159,-43.5 11.616,-43.5 1.5276,-4.75952 1.5275,-4.75952 1.8508,-0.99048 1.8507,-0.99048 h 15.0427 15.0427 l 1.4297,2.25 1.4297,2.25 10.1787,38 10.1787,38 8.9707,32.85263 8.9708,32.85262 -0.3061,2.14738 -0.3061,2.14737 -13.5,0.25011 -13.5,0.25012 -1.2557,-0.81262 -1.2556,-0.81263 -3.2444,-14.18385 -3.2443,-14.18385 -20.7115,-0.004 -20.7114,-0.004 -0.9882,3.75 -0.9881,3.75 -2.2472,9.87533 -2.2471,9.87533 -1.3747,1.37467 -1.3747,1.37535 h -12.9599 -12.96 z m 64.3629,-81.73777 -7.0641,-28.25 -0.3279,-0.41667 -0.3278,-0.41666 -0.4126,0.41666 -0.4126,0.41667 -7.0874,27.65063 -7.0874,27.65063 v 0.59937 0.59937 h 14.8919 14.892 z"
       id="path2" />
  </g>
</svg>
